Motion_pl04
version=1
nRows=10
nColumns=43
inDegrees=yes
endheader
time	pelvis_tilt	pelvis_list	pelvis_rotation	pelvis_tx	pelvis_ty	pelvis_tz	hip_flexion_r	hip_adduction_r	hip_rotation_r	knee_angle_r	ankle_angle_r	subtalar_angle_r	mtp_angle_r	hip_flexion_l	hip_adduction_l	hip_rotation_l	knee_angle_l	ankle_angle_l	subtalar_angle_l	mtp_angle_l	lumbar_extension	lumbar_bending	lumbar_rotation	neck_flexion	neck_lateral_bending	neck_rotation	arm_flex_r	arm_add_r	arm_rot_r	elbow_flex_r	pro_sup_r	wrist_flex_r	wrist_dev_r	hand_finger_flex_r	arm_flex_l	arm_add_l	arm_rot_l	elbow_flex_l	pro_sup_l	wrist_flex_l	wrist_dev_l	hand_finger_flex_l
      1.30750000	     -2.26868740	    -24.83554064	     89.99771719	      0.00249405	      1.74038616	      1.78083423	     95.49956663	     -9.00188493	      6.29890471	   -111.19814070	     13.52857869	     18.50663288	     10.72670540	     92.04119056	    -10.24300761	      1.76231748	   -109.58022355	     28.60274265	     18.06948077	     14.61482944	    -34.57194661	     -4.31156410	      2.48864355	     13.74878321	      4.84537403	     -5.74072247	     -2.66435517	    -39.09686259	   -102.89093908	    129.06704578	    128.85197546	      5.75418964	     25.54796080	    -14.02583120	     -0.06852402	    -39.39787704	    -88.18085940	    128.63906162	    132.68481786	    -22.28068792	     25.31887723	     25.19229568
      1.31000000	     -2.27031646	    -24.83623865	     89.99836796	      0.00247431	      1.74039385	      1.78083327	     95.49893779	     -9.00130505	      6.29773578	   -111.19841399	     13.52843513	     18.50656290	     10.72672451	     92.04106095	    -10.24260930	      1.76213646	   -109.57983153	     28.60265574	     18.06951441	     14.61483700	    -34.57227005	     -4.31157335	      2.48912104	     13.74849803	      4.84554715	     -5.74068458	     -2.66494656	    -39.09659801	   -102.89104017	    129.06703997	    128.85190326	      5.75416014	     25.54797284	    -14.02584529	     -0.06907157	    -39.39725471	    -88.18104949	    128.63889646	    132.68475203	    -22.28075322	     25.31892022	     25.19231731
      1.31250000	     -2.27292763	    -24.80864228	     90.02138889	      0.00254774	      1.74135590	      1.78037708	     95.26158393	     -9.06332798	      6.19964479	   -111.04911327	     13.21010140	     18.59593187	     10.76030539	     91.72589670	    -10.13556866	      1.76823175	   -109.17728528	     28.48710409	     18.07663413	     14.63197839	    -34.70437307	     -4.27633323	      2.54284580	     13.39285429	      5.06787054	     -5.68242249	     -3.49126158	    -38.78235287	   -103.29062848	    129.30530502	    128.75105379	      5.61138879	     25.54577207	    -14.07819637	     -0.77343358	    -38.99843429	    -88.40895873	    128.80678462	    132.58020509	    -22.44832543	     25.25061147	     25.20601534
      1.31500000	     -2.27437653	    -24.80808195	     90.02266729	      0.00250410	      1.74137414	      1.78035533	     95.26161280	     -9.06237760	      6.19904255	   -111.04869815	     13.21001389	     18.59590777	     10.76034018	     91.72646341	    -10.13546563	      1.76808428	   -109.17803116	     28.48721039	     18.07662377	     14.63202198	    -34.70446766	     -4.27635604	      2.54311996	     13.39285324	      5.06792156	     -5.68235909	     -3.49156587	    -38.78240556	   -103.29082284	    129.30500200	    128.75092545	      5.61127959	     25.54580343	    -14.07824230	     -0.77356738	    -38.99855074	    -88.40918977	    128.80670324	    132.58008625	    -22.44850856	     25.25055163	     25.20599201
      1.31750000	     -2.27573734	    -24.80821711	     90.02336299	      0.00248212	      1.74137229	      1.78035244	     95.26121316	     -9.06179111	      6.19849369	   -111.04852615	     13.21001966	     18.59586633	     10.76035967	     91.72677432	    -10.13536016	      1.76798253	   -109.17845887	     28.48726889	     18.07662238	     14.63204690	    -34.70456152	     -4.27617407	      2.54335061	     13.39284035	      5.06797003	     -5.68232284	     -3.49175825	    -38.78242742	   -103.29092739	    129.30482065	    128.75085422	      5.61121748	     25.54581971	    -14.07826895	     -0.77365742	    -38.99859603	    -88.40934484	    128.80669389	    132.58002209	    -22.44862274	     25.25051537	     25.20597641
      1.32000000	     -2.27739003	    -24.80849513	     90.02401795	      0.00247116	      1.74137471	      1.78034514	     95.26070609	     -9.06120112	      6.19788525	   -111.04841821	     13.21003633	     18.59581221	     10.76037900	     91.72710083	    -10.13520746	      1.76786299	   -109.17889067	     28.48732821	     18.07662485	     14.63207224	    -34.70465245	     -4.27578592	      2.54365972	     13.39281704	      5.06803806	     -5.68228569	     -3.49196977	    -38.78245197	   -103.29103302	    129.30463376	    128.75078531	      5.61115282	     25.54583321	    -14.07829698	     -0.77375566	    -38.99862994	    -88.40953601	    128.80672760	    132.57996242	    -22.44875088	     25.25047628	     25.20595701
      1.32250000	     -2.27940253	    -24.80894432	     90.02467692	      0.00246668	      1.74137981	      1.78033507	     95.26006287	     -9.06057182	      6.19716980	   -111.04838608	     13.21006792	     18.59573951	     10.76039814	     91.72743547	    -10.13501899	      1.76773436	   -109.17932509	     28.48738750	     18.07663005	     14.63209785	    -34.70473903	     -4.27521220	      2.54405123	     13.39278353	      5.06812368	     -5.68224738	     -3.49219899	    -38.78247557	   -103.29113945	    129.30444721	    128.75071888	      5.61108541	     25.54584330	    -14.07832637	     -0.77385986	    -38.99864972	    -88.40976761	    128.80680142	    132.57990804	    -22.44889439	     25.25043543	     25.20593312
      1.32500000	     -2.30070531	    -24.81806878	     90.03395815	      0.00263186	      1.74141749	      1.78022362	     95.24643771	     -9.05295538	      6.19143053	   -111.04630767	     13.21058736	     18.59529679	     10.76078358	     91.73330306	    -10.13033381	      1.76452759	   -109.18768563	     28.48841326	     18.07686965	     14.63260960	    -34.70552802	     -4.27116853	      2.54967976	     13.39198385	      5.06961802	     -5.68142372	     -3.49702567	    -38.78302738	   -103.29444777	    129.30219550	    128.74954998	      5.60931063	     25.54590456	    -14.07904784	     -0.77643554	    -38.99733137	    -88.41442778	    128.80722289	    132.57879415	    -22.45182499	     25.24987281	     25.20543165
      1.32750000	     -2.30096493	    -24.81852253	     90.03414235	      0.00262197	      1.74146820	      1.78024340	     95.24576375	     -9.05267322	      6.19129644	   -111.04698561	     13.21057345	     18.59525224	     10.76080245	     91.73353413	    -10.13012817	      1.76439247	   -109.18807816	     28.48845632	     18.07688262	     14.63263428	    -34.70531646	     -4.27132021	      2.54976229	     13.39195266	      5.06967523	     -5.68138279	     -3.49726500	    -38.78301131	   -103.29471343	    129.30216084	    128.74950627	      5.60919644	     25.54591120	    -14.07909120	     -0.77658025	    -38.99720227	    -88.41466798	    128.80719479	    132.57873958	    -22.45197340	     25.24985621	     25.20540476
      1.33000000	     -2.30209652	    -24.81894109	     90.03461366	      0.00262029	      1.74147197	      1.78023342	     95.24512360	     -9.05219654	      6.19086467	   -111.04694516	     13.21060417	     18.59519803	     10.76082102	     91.73376478	    -10.12988921	      1.76425519	   -109.18843579	     28.48849465	     18.07689761	     14.63265854	    -34.70527669	     -4.27114960	      2.54997436	     13.39190430	      5.06975265	     -5.68134131	     -3.49751992	    -38.78298261	   -103.29494299	    129.30211693	    128.74946141	      5.60908907	     25.54591398	    -14.07913317	     -0.77672964	    -38.99706602	    -88.41493593	    128.80723096	    132.57869142	    -22.45213973	     25.24983077	     25.20537292
